HIERARCHY
ROOT Hips
{
  OFFSET 0 0.240689 0
  CHANNELS 6 Xposition Yposition Zposition Zrotation Xrotation Yrotation
  JOINT Bip01_Spine0
  {
    OFFSET 0 -24.7459 49.7988
    CHANNELS 6 Xposition Yposition Zposition Zrotation Xrotation Yrotation
    JOINT Bip01_Pelvis
    {
      OFFSET 0 0 0
      CHANNELS 6 Xposition Yposition Zposition Zrotation Xrotation Yrotation
      JOINT Bip01_Spine0_Tail
      {
        OFFSET -6.47486 -3.86022 0
        CHANNELS 6 Xposition Yposition Zposition Zrotation Xrotation Yrotation
        JOINT Bip01_Spine0_Tail1
        {
          OFFSET 10.3837 -0.00825882 0
          CHANNELS 6 Xposition Yposition Zposition Zrotation Xrotation Yrotation
          JOINT Bip01_Spine0_Tail2
          {
            OFFSET 10.3837 -0.00826263 0
            CHANNELS 6 Xposition Yposition Zposition Zrotation Xrotation Yrotation
            JOINT Bip01_Spine0_Tail3
            {
              OFFSET 10.3837 -0.00825882 0
              CHANNELS 6 Xposition Yposition Zposition Zrotation Xrotation Yrotation
              JOINT Bip01_Spine0_Tail4
              {
                OFFSET 10.3837 -0.00826263 0
                CHANNELS 6 Xposition Yposition Zposition Zrotation Xrotation Yrotation
                End Site
                {
                  OFFSET 0 0 0
                }
              }
            }
          }
        }
      }
      JOINT Bip01_R_Thigh
      {
        OFFSET 0 -1.52588e-005 -8.75617
        CHANNELS 6 Xposition Yposition Zposition Zrotation Xrotation Yrotation
        JOINT Bip01_R_Calf
        {
          OFFSET 19.7638 0 0
          CHANNELS 6 Xposition Yposition Zposition Zrotation Xrotation Yrotation
          JOINT Bip01_R_Foot
          {
            OFFSET 18.6534 0 0
            CHANNELS 6 Xposition Yposition Zposition Zrotation Xrotation Yrotation
            JOINT Bip01_R_Toe0
            {
              OFFSET 5.09145 13.9567 0
              CHANNELS 6 Xposition Yposition Zposition Zrotation Xrotation Yrotation
              JOINT Bip01_R_Toe01
              {
                OFFSET 4.28803 0 0
                CHANNELS 6 Xposition Yposition Zposition Zrotation Xrotation Yrotation
                JOINT Bip01_R_Toe02
                {
                  OFFSET 3.85801 0 0
                  CHANNELS 6 Xposition Yposition Zposition Zrotation Xrotation Yrotation
                  End Site
                  {
                    OFFSET 0 0 0
                  }
                }
              }
            }
          }
        }
      }
      JOINT Bip01_L_Thigh
      {
        OFFSET 0 1.52588e-005 8.75617
        CHANNELS 6 Xposition Yposition Zposition Zrotation Xrotation Yrotation
        JOINT Bip01_L_Calf
        {
          OFFSET 19.7638 0 0
          CHANNELS 6 Xposition Yposition Zposition Zrotation Xrotation Yrotation
          JOINT Bip01_L_Foot
          {
            OFFSET 18.6534 0 0
            CHANNELS 6 Xposition Yposition Zposition Zrotation Xrotation Yrotation
            JOINT Bip01_L_Toe0
            {
              OFFSET 5.09144 13.9567 0
              CHANNELS 6 Xposition Yposition Zposition Zrotation Xrotation Yrotation
              JOINT Bip01_L_Toe01
              {
                OFFSET 4.28802 0 0
                CHANNELS 6 Xposition Yposition Zposition Zrotation Xrotation Yrotation
                JOINT Bip01_L_Toe02
                {
                  OFFSET 3.85801 0 0
                  CHANNELS 6 Xposition Yposition Zposition Zrotation Xrotation Yrotation
                  End Site
                  {
                    OFFSET 0 0 0
                  }
                }
              }
            }
          }
        }
      }
      JOINT Bip01_Spine
      {
        OFFSET 9.14835 -0.00640869 -1.1e-005
        CHANNELS 6 Xposition Yposition Zposition Zrotation Xrotation Yrotation
        JOINT Bip01_Spine1
        {
          OFFSET 8.04366 -0.00638199 0
          CHANNELS 6 Xposition Yposition Zposition Zrotation Xrotation Yrotation
          JOINT Bip01_Spine2
          {
            OFFSET 8.04367 -0.00639343 0
            CHANNELS 6 Xposition Yposition Zposition Zrotation Xrotation Yrotation
            JOINT Bip01_Spine3
            {
              OFFSET 8.04304 -0.00831222 0
              CHANNELS 6 Xposition Yposition Zposition Zrotation Xrotation Yrotation
              JOINT Bip01_Neck
              {
                OFFSET 10.6685 1.06813 0
                CHANNELS 6 Xposition Yposition Zposition Zrotation Xrotation Yrotation
                JOINT Bip01_R_Clavicle
                {
                  OFFSET -3.21661 -4.89635 -9.04802
                  CHANNELS 6 Xposition Yposition Zposition Zrotation Xrotation Yrotation
                  JOINT Bip01_R_UpperArm
                  {
                    OFFSET 19.0492 0 0
                    CHANNELS 6 Xposition Yposition Zposition Zrotation Xrotation Yrotation
                    JOINT Bip01_R_Forearm
                    {
                      OFFSET 10.3706 0 0
                      CHANNELS 6 Xposition Yposition Zposition Zrotation Xrotation Yrotation
                      JOINT Bip01_R_Hand
                      {
                        OFFSET 22.8632 0 0
                        CHANNELS 6 Xposition Yposition Zposition Zrotation Xrotation Yrotation
                        JOINT Bip01_R_Finger0
                        {
                          OFFSET 6.48259 0.103651 0.504496
                          CHANNELS 6 Xposition Yposition Zposition Zrotation Xrotation Yrotation
                          JOINT Bip01_R_Finger01
                          {
                            OFFSET 3.66847 0 0
                            CHANNELS 6 Xposition Yposition Zposition Zrotation Xrotation Yrotation
                            End Site
                            {
                              OFFSET 0 0 0
                            }
                          }
                        }
                      }
                    }
                  }
                }
                JOINT Bip01_L_Clavicle
                {
                  OFFSET -3.21661 -4.89641 9.04797
                  CHANNELS 6 Xposition Yposition Zposition Zrotation Xrotation Yrotation
                  JOINT Bip01_L_UpperArm
                  {
                    OFFSET 19.0492 0 0
                    CHANNELS 6 Xposition Yposition Zposition Zrotation Xrotation Yrotation
                    JOINT Bip01_L_Forearm
                    {
                      OFFSET 10.3706 0 0
                      CHANNELS 6 Xposition Yposition Zposition Zrotation Xrotation Yrotation
                      JOINT Bip01_L_Hand
                      {
                        OFFSET 22.8631 0 0
                        CHANNELS 6 Xposition Yposition Zposition Zrotation Xrotation Yrotation
                        JOINT Bip01_L_Finger0
                        {
                          OFFSET 6.48257 0.103655 -0.504492
                          CHANNELS 6 Xposition Yposition Zposition Zrotation Xrotation Yrotation
                          JOINT Bip01_L_Finger01
                          {
                            OFFSET 3.66844 0 0
                            CHANNELS 6 Xposition Yposition Zposition Zrotation Xrotation Yrotation
                            End Site
                            {
                              OFFSET 0 0 0
                            }
                          }
                        }
                      }
                    }
                  }
                }
                JOINT Bip01_Neck1
                {
                  OFFSET 7.52459 -0.00656509 0
                  CHANNELS 6 Xposition Yposition Zposition Zrotation Xrotation Yrotation
                  JOINT Bip01_Neck2
                  {
                    OFFSET 8.4783 -0.00588226 0
                    CHANNELS 6 Xposition Yposition Zposition Zrotation Xrotation Yrotation
                    JOINT Bip01_Head
                    {
                      OFFSET 8.41606 0 0
                      CHANNELS 6 Xposition Yposition Zposition Zrotation Xrotation Yrotation
                      JOINT EyesBlue
                      {
                        OFFSET 0 0 0
                        CHANNELS 6 Xposition Yposition Zposition Zrotation Xrotation Yrotation
                        JOINT EyesBlue_2
                        {
                          OFFSET 0 -0.500007 0
                          CHANNELS 6 Xposition Yposition Zposition Zrotation Xrotation Yrotation
                          End Site
                          {
                            OFFSET 0 0 0
                          }
                        }
                      }
                      JOINT Bip01_Head2_Eyeleds
                      {
                        OFFSET 6.52751 7.61746 2.2e-005
                        CHANNELS 6 Xposition Yposition Zposition Zrotation Xrotation Yrotation
                        End Site
                        {
                          OFFSET 0 0 0
                        }
                      }
                      JOINT Bip01_Head_Muzzle
                      {
                        OFFSET 2.88628 13.9448 3.88994
                        CHANNELS 6 Xposition Yposition Zposition Zrotation Xrotation Yrotation
                        End Site
                        {
                          OFFSET 0 0 0
                        }
                      }
                      JOINT Bip01_Head1_Jaw
                      {
                        OFFSET 0.271065 1.32405 0
                        CHANNELS 6 Xposition Yposition Zposition Zrotation Xrotation Yrotation
                        JOINT _Bip01_Head11_TungeControler
                        {
                          OFFSET 4.61616 5.82872 0
                          CHANNELS 6 Xposition Yposition Zposition Zrotation Xrotation Yrotation
                          JOINT _Bip01_Ponytail3_tunge
                          {
                            OFFSET 5.17785 2.98805 0
                            CHANNELS 6 Xposition Yposition Zposition Zrotation Xrotation Yrotation
                            JOINT Bip01_Ponytail31
                            {
                              OFFSET 5.57569 0 0
                              CHANNELS 6 Xposition Yposition Zposition Zrotation Xrotation Yrotation
                              JOINT Bip01_Ponytail32
                              {
                                OFFSET 2.93165 0 0
                                CHANNELS 6 Xposition Yposition Zposition Zrotation Xrotation Yrotation
                                JOINT Bip01_Ponytail3Nub
                                {
                                  OFFSET 3.30155 0 0
                                  CHANNELS 6 Xposition Yposition Zposition Zrotation Xrotation Yrotation
                                  End Site
                                  {
                                    OFFSET 0 0 0
                                  }
                                }
                              }
                            }
                          }
                        }
                        JOINT Bip01_Head_JawNub
                        {
                          OFFSET 15.5776 -0.000389099 0
                          CHANNELS 6 Xposition Yposition Zposition Zrotation Xrotation Yrotation
                          End Site
                          {
                            OFFSET 0 0 0
                          }
                        }
                      }
                      JOINT Bip01_Ponytail2
                      {
                        OFFSET 9.40334 1.03973 -6.51764
                        CHANNELS 6 Xposition Yposition Zposition Zrotation Xrotation Yrotation
                        JOINT Bip01_Ponytail21
                        {
                          OFFSET 2.77018 -0.00640106 1.33514e-005
                          CHANNELS 6 Xposition Yposition Zposition Zrotation Xrotation Yrotation
                          End Site
                          {
                            OFFSET 0 0 0
                          }
                        }
                      }
                      JOINT Bip01_Ponytail1
                      {
                        OFFSET 9.40368 1.03969 6.51768
                        CHANNELS 6 Xposition Yposition Zposition Zrotation Xrotation Yrotation
                        JOINT Bip01_Ponytail11
                        {
                          OFFSET 2.77018 -0.00640487 0
                          CHANNELS 6 Xposition Yposition Zposition Zrotation Xrotation Yrotation
                          End Site
                          {
                            OFFSET 0 0 0
                          }
                        }
                      }
                    }
                  }
                }
              }
            }
          }
        }
      }
    }
  }
}
MOTION
Frames:	4
Frame Time:	0.0333333
0 0.240689 0 -0 -90 -0 -0.262263 -30.4173 46.5975 90 -3.50835e-015 90 0 0 0 -90.0004 0.000321736 -93.9001 -6.45971 -3.86019 0.44026 138.3 2.58946 -11.6423 10.3791 -0.007102 3.49999e-005 -29.7604 0.000314151 0.000540551 10.3833 -0.008132 0.000116 0.500427 0.000510114 0.000505693 10.3851 -0.007953 0.000138 13.1322 0.000959215 0.000773247 10.3818 -0.00799101 9.6e-005 -10.2443 0.000549265 0.000657086 1.1e-005 -6.99983e-006 -8.75617 -118.451 -9.86289 170.94 19.7638 1e-006 1.06581e-014 -88.0291 9.79886e-007 0.000290503 18.6534 0 7.10543e-015 -21.0101 2.46295 7.07709 5.09144 13.9567 1.47439e-006 114.819 3.10065 1.66912 4.288 -3e-006 1e-006 64.9988 0.00146377 0.000319241 3.858 -2.95763e-013 -1e-006 -45 -2.08386e-005 -5.71786e-006 -1.5e-005 1.89998e-005 8.75617 -131.29 -4.63378 179.435 19.7638 1e-006 1.77636e-015 -85.108 -9.12088e-006 1.083e-005 18.6534 0 -1.77636e-015 -24.2715 1.43458 -5.83317 5.09143 13.9567 -6.27043e-007 115.001 0.000706981 4.99899 4.28801 -1e-006 3.90799e-014 64.9997 0.00228724 0.000510963 3.858 1.95399e-014 -1.77636e-015 -44.9998 0.000650808 0.00155194 9.12548 -0.006141 -0.621934 -14.5746 -0.996314 3.82719 8.04483 -0.006298 -9.99995e-007 10.4498 0.0117165 0.054609 8.04483 -0.006301 -9.99942e-007 10.4498 0.0117144 0.0546091 8.04456 -0.008296 -1.00015e-006 6.15229 0.0116064 0.0535629 10.6708 1.06817 1.01205e-006 9.58996 0.00170829 -0.000170108 -4.86901 -3.26094 -9.04791 170.354 -85.4162 114.989 19.0492 1.77636e-015 3.55272e-015 82.7577 17.6808 -104.067 10.3706 -2.55795e-013 1e-006 -97.9059 4.69761e-005 -0.000746538 22.8631 0 4.4409e-016 13.8386 -1.35292 8.09402 6.48256 0.103653 0.504496 -78.3097 -0.298844 -15.494 3.66843 -1.5099e-013 1e-006 40.108 1.38517e-005 3.84358e-006 -4.8688 -3.26082 9.04778 170.367 85.417 -115.001 19.0492 0 -1.77636e-014 83.7669 -16.3005 99.0372 10.3706 -1.77636e-014 5.32908e-015 -98.8007 0.000235758 -0.00302988 22.8631 1e-006 1e-006 13.7762 -8.63804 -6.334 6.48255 0.103649 -0.504496 -75.9417 0.957459 15.4724 3.66843 2e-006 1e-006 40.109 -3.30001e-005 1.80641e-005 7.52479 -0.006511 3.2e-005 -10.581 6.66346e-005 8.00634e-005 8.4759 -0.006526 7.59999e-005 8.28099 0.0017183 -0.000144101 8.41605 0 1.63758e-015 -107.994 0.212945 -0.0231199 -3e-006 3e-006 -3e-006 -23.1098 1.37701e-015 90 1.28594e-008 -0.500015 -1.3282e-005 1.70367e-007 90 90 0 0 0 -113.549 1.52588e-005 -180 2.8863 13.9448 3.88993 -22.9892 1.37021e-015 90 0 0 0 -85.3358 -7.01671e-015 -180 0 0 0 -120.289 -2.24217e-007 -1.95871e-005 0 0 0 133.74 0.00150938 -0.000605046 0 0 0 -0.168468 1.04343e-008 -1.2547e-009 0 0 0 -22.6319 -5.95315e-007 -1.68221e-007 0 0 0 -26.1943 9.5785e-008 8.46737e-008 15.5776 -0.000396 -7.00001e-006 4.9987e-038 -1.84419e-018 1.55301e-018 9.40249 1.04114 -6.51523 -62.0924 -44.1115 37.8523 2.77017 -0.006397 1.95463e-010 2.43503 1.13315e-005 9.65763e-006 9.40294 1.04103 6.51547 -62.0941 44.1108 -37.8496 2.77018 -0.006404 9.99809e-007 2.43503 1.02503e-005 -2.20515e-006 
0 0.240689 0 -0 -90 -0 -0.262263 -30.4476 46.5975 90.0004 0.101043 89.9063 0 0 0 -90.0001 0.000325308 -93.7728 -6.45971 -3.86019 0.425955 138.404 2.49376 -10.3908 10.3791 -0.007102 3.49999e-005 -29.7604 0.000314042 0.00054048 10.3833 -0.008132 0.000116 0.500427 0.000510116 0.000505693 10.3851 -0.007953 0.000138 13.1322 0.000959256 0.000773251 10.3818 -0.00799101 9.6e-005 -11.0348 -0.0248403 0.0775044 1.1e-005 -6.99982e-006 -8.75617 -118.425 -9.75107 171.001 19.7638 1e-006 1.06581e-014 -88.0291 9.93064e-007 0.000290507 18.6534 7.10543e-015 -5.32907e-015 -21.0101 2.46295 7.07709 5.09144 13.9567 1.46647e-006 114.819 3.10065 1.66912 4.288 -3e-006 1e-006 64.9988 0.0014637 0.000319235 3.858 -3.01981e-013 -1e-006 -45 -2.07915e-005 -5.66398e-006 -1.5e-005 1.89998e-005 8.75617 -131.166 -4.53766 179.526 19.7638 1e-006 1.77636e-015 -85.108 -9.11895e-006 1.0828e-005 18.6534 0 -3.55271e-015 -24.2912 1.43362 -5.82612 5.09143 13.9567 -6.26193e-007 115.001 0.000706975 4.99899 4.28801 -1e-006 4.26326e-014 64.9997 0.00228724 0.000510959 3.858 0 -3.55271e-015 -44.9998 0.000650811 0.00155194 9.12681 -0.006141 -0.601725 -14.5767 -0.964394 3.70441 8.04483 -0.006298 -9.99995e-007 10.516 0.0117796 0.0545954 8.04483 -0.006301 -9.99943e-007 10.516 0.0117775 0.0545955 8.04456 -0.008296 -1.00015e-006 6.21816 0.0116679 0.0535495 10.6708 1.06817 1.01197e-006 9.45868 0.00170867 -0.000166192 -4.8615 -3.27208 -9.04791 170.487 -85.4168 114.99 19.0492 8.88178e-015 -3.55272e-015 82.7785 18.0529 -104.03 10.3706 -2.45137e-013 1e-006 -97.8146 4.5798e-005 -0.000746765 22.8631 -1.42109e-014 3.55272e-015 13.9923 -1.30867 8.13275 6.48256 0.103653 0.504496 -78.3097 -0.298844 -15.494 3.66843 -1.37668e-013 1e-006 40.108 1.37632e-005 3.9127e-006 -4.86133 -3.27201 9.04778 170.543 85.4175 -115.045 19.0492 0 -7.10543e-015 83.791 -16.6696 99.0362 10.3706 3.55271e-015 -4.4409e-015 -98.715 0.000231218 -0.00303012 22.8631 1e-006 1e-006 13.9277 -8.66452 -6.34811 6.48255 0.103649 -0.504496 -75.9417 0.957459 15.4724 3.66843 2e-006 1e-006 40.109 -3.26402e-005 1.77989e-005 7.52479 -0.006511 3.2e-005 -10.7117 6.64412e-005 8.02169e-005 8.4759 -0.006526 7.59999e-005 8.14983 0.00171863 -0.000140168 8.41605 -1.42109e-014 1.11022e-016 -107.864 0.2131 -0.0235359 -3e-006 3e-006 -3e-006 -23.1098 1.37701e-015 90 1.28609e-008 -0.500015 -1.32816e-005 3.65725e-008 90 90 0 0 0 -113.549 1.52588e-005 -180 2.8863 13.9448 3.88993 -22.9892 1.37021e-015 90 0 0 0 -84.6634 -7.01671e-015 -180 0 0 0 -117.976 -9.96656e-007 -1.95959e-005 0 0 0 128.775 0.356495 -0.956357 0 0 0 0.0314635 5.57236e-008 -4.5368e-009 0 0 0 -22.8482 9.60865e-006 3.18623e-006 0 0 0 -26.1943 -6.57763e-007 -9.03448e-007 15.5776 -0.000396 -7.00001e-006 -7.95139e-016 1.97038e-017 5.43552e-018 9.40249 1.04114 -6.51523 -62.9926 -45.1332 36.5832 2.77017 -0.006397 1.83022e-010 2.43503 1.1355e-005 9.6529e-006 9.40294 1.04103 6.51547 -62.9936 45.1329 -36.5817 2.77018 -0.006404 9.99821e-007 2.43503 1.02998e-005 -2.20058e-006 
0 0.240689 0 -0 -90 -0 -0.262263 -30.478 46.5975 90.0005 0.0206625 89.7252 0 0 0 -89.9997 0.000315317 -93.6455 -6.45971 -3.86019 0.41165 138.511 2.39602 -9.13957 10.3791 -0.007102 3.49999e-005 -29.7604 0.000313924 0.000540401 10.3833 -0.008132 0.000116 0.500427 0.000510117 0.000505693 10.3851 -0.007953 0.000138 13.1322 0.0009593 0.000773255 10.3818 -0.00799101 9.6e-005 -11.8252 -0.0502297 0.154351 1.1e-005 -6.99982e-006 -8.75617 -118.399 -9.63923 171.062 19.7638 1e-006 0 -88.0291 1.01996e-006 0.000290514 18.6534 -7.10543e-015 7.10543e-015 -21.0101 2.46295 7.07709 5.09144 13.9567 1.45211e-006 114.819 3.10065 1.66912 4.288 -3e-006 1e-006 64.9988 0.00146355 0.000319222 3.858 -2.93987e-013 -1e-006 -45 -2.06972e-005 -5.55585e-006 -1.5e-005 1.89998e-005 8.75617 -131.042 -4.44152 179.617 19.7638 1e-006 1.77636e-015 -85.108 -9.1153e-006 1.08243e-005 18.6534 7.10543e-015 -1.77636e-015 -24.311 1.43266 -5.81908 5.09143 13.9567 -6.20038e-007 115.001 0.000706974 4.99899 4.28801 -1e-006 3.90799e-014 64.9997 0.00228727 0.000510967 3.858 -1.59872e-014 -1.77636e-015 -44.9998 0.000650822 0.00155191 9.12814 -0.006141 -0.581517 -14.5787 -0.932471 3.58165 8.04483 -0.006298 -9.99995e-007 10.5822 0.0118426 0.0545818 8.04483 -0.006301 -9.99946e-007 10.5822 0.0118406 0.0545819 8.04456 -0.008296 -1.00016e-006 6.284 0.0117295 0.0535361 10.6708 1.06817 1.01208e-006 9.32743 0.00170905 -0.000162277 -4.85398 -3.28322 -9.04791 170.62 -85.4173 114.992 19.0492 -3.55271e-015 1.06581e-014 82.7983 18.4263 -103.986 10.3706 -2.55795e-013 1e-006 -97.7233 4.46343e-005 -0.000747066 22.8631 3.55271e-015 -3.55272e-015 14.1459 -1.26443 8.17148 6.48256 0.103653 0.504496 -78.3097 -0.298844 -15.494 3.66843 -1.53211e-013 1e-006 40.108 1.3606e-005 4.05578e-006 -4.85386 -3.2832 9.04778 170.719 85.4179 -115.09 19.0492 -5.32907e-015 -7.10543e-015 83.8142 -17.0402 99.029 10.3706 -7.10543e-015 -6.21726e-015 -98.6292 0.000226661 -0.00303028 22.8631 1e-006 1e-006 14.0792 -8.69111 -6.36207 6.48255 0.103649 -0.504496 -75.9417 0.957458 15.4724 3.66843 2e-006 1e-006 40.109 -3.20846e-005 1.73479e-005 7.52479 -0.006511 3.2e-005 -10.8424 6.62377e-005 8.03707e-005 8.4759 -0.006526 7.59999e-005 8.01866 0.00171896 -0.000136236 8.41605 1.42109e-014 -6.66134e-016 -107.734 0.213229 -0.0239611 -3e-006 3e-006 -3e-006 -23.1098 1.37701e-015 90 1.28625e-008 -0.500015 -1.32814e-005 3.63911e-008 90 90 0 0 0 -113.549 1.52588e-005 -180 2.8863 13.9448 3.88993 -22.9892 1.37021e-015 90 0 0 0 -83.9911 -7.01671e-015 -180 0 0 0 -115.662 -1.77502e-006 -1.95641e-005 0 0 0 123.822 0.711187 -1.91221 0 0 0 0.231397 -2.60552e-006 -4.76686e-008 0 0 0 -23.0644 1.70828e-005 5.6448e-006 0 0 0 -26.1943 -1.0101e-006 -1.68886e-006 15.5776 -0.000396 -7.00001e-006 -1.59028e-015 6.7944e-018 7.76503e-019 9.40249 1.04114 -6.51523 -63.946 -46.1484 35.2769 2.77017 -0.006397 1.61265e-010 2.43503 1.13949e-005 9.64461e-006 9.40294 1.04103 6.51547 -63.9462 46.1484 -35.2766 2.77018 -0.006404 9.99842e-007 2.43503 1.03495e-005 -2.19251e-006 
0 0.240689 0 -0 -90 -0 -0.262263 -30.5117 46.5975 90.0003 -1.90673e-005 89.5713 0 0 0 -90 0.000321859 -93.5053 -6.45971 -3.86019 0.395783 138.638 2.29301 -7.87429 10.3791 -0.007102 3.49999e-005 -29.7604 0.000313805 0.000540322 10.3833 -0.008132 0.000116 0.500427 0.000510118 0.000505693 10.3851 -0.007953 0.000138 13.1322 0.000959344 0.00077326 10.3818 -0.00799101 9.6e-005 -12.6935 -0.111213 0.322267 1.1e-005 -6.99981e-006 -8.75617 -118.37 -9.51481 171.129 19.7638 1e-006 3.55271e-015 -88.0291 1.04224e-006 0.00029052 18.6534 0 0 -21.0101 2.46295 7.07709 5.09144 13.9567 1.4398e-006 114.819 3.10065 1.66912 4.288 -3e-006 1e-006 64.9988 0.00146343 0.000319212 3.858 -3.01981e-013 -1e-006 -45 -2.06185e-005 -5.46545e-006 -1.5e-005 1.89998e-005 8.75617 -130.905 -4.33424 179.717 19.7638 1e-006 7.10543e-015 -85.108 -9.11215e-006 1.08211e-005 18.6534 0 0 -24.3265 1.43141 -5.81245 5.09143 13.9567 -6.15975e-007 115.001 0.000706971 4.99899 4.28801 -1e-006 3.73035e-014 64.9997 0.00228729 0.000510971 3.858 8.88179e-015 -3.55271e-015 -44.9998 0.000650831 0.00155189 9.12952 -0.006141 -0.559103 -14.5809 -0.897012 3.4453 8.04483 -0.006298 -9.99995e-007 10.6556 0.0119125 0.0545666 8.04483 -0.006301 -9.99949e-007 10.6556 0.0119105 0.0545666 8.04456 -0.008296 -1.00016e-006 6.35725 0.0117979 0.053521 10.6708 1.06817 1.01206e-006 9.18127 0.00170946 -0.000157916 -4.84557 -3.29557 -9.04791 170.772 -85.4172 114.997 19.0492 -3.55271e-015 -3.55272e-015 82.8242 18.8441 -103.949 10.3706 -2.23821e-013 1e-006 -97.6175 4.32739e-005 -0.000747353 22.8631 -1.42109e-014 4.4409e-015 14.3167 -1.21863 8.21258 6.48256 0.103653 0.504496 -78.3097 -0.298844 -15.494 3.66843 -1.44329e-013 1e-006 40.108 1.34692e-005 4.1727e-006 -4.84543 -3.29556 9.04778 170.915 85.4186 -115.14 19.0492 -3.55271e-015 -1.06581e-014 83.8411 -17.4541 99.0279 10.3706 -7.10543e-015 -1.24345e-014 -98.5293 0.000221367 -0.00303051 22.8631 1e-006 1e-006 14.2483 -8.7209 -6.37735 6.48255 0.103649 -0.504496 -75.9417 0.957457 15.4724 3.66843 2e-006 1e-006 40.109 -3.15661e-005 1.69448e-005 7.52479 -0.006511 3.2e-005 -10.9886 6.60148e-005 8.05417e-005 8.4759 -0.006526 7.59999e-005 7.87258 0.00171931 -0.000131854 8.41605 1.42109e-014 -5.27356e-016 -107.589 0.213819 -0.0242926 -3e-006 3e-006 -3e-006 -23.1098 1.37701e-015 90 1.28637e-008 -0.500015 -1.32811e-005 3.61607e-008 90 90 0 0 0 -113.549 1.52588e-005 -180 2.8863 13.9448 3.88993 -22.9892 1.37021e-015 90 0 0 0 -83.3188 -7.01671e-015 -180 0 0 0 -113.349 -2.55187e-006 -1.95025e-005 0 0 0 120.003 0.984274 -2.6514 0 0 0 0.43133 -4.33526e-006 1.22861e-007 0 0 0 -23.2807 -5.9544e-006 -4.73674e-006 0 0 0 -26.1943 -1.15814e-006 -2.2311e-006 15.5776 -0.000396 -7.00001e-006 -0 -1.94126e-019 -0 9.40249 1.04114 -6.51523 -65.0641 -47.2523 33.7552 2.77017 -0.006397 1.43281e-010 2.43503 1.14379e-005 9.63777e-006 9.40294 1.04103 6.51547 -65.0644 47.2524 -33.7549 2.77018 -0.006404 9.99859e-007 2.43503 1.04141e-005 -2.18593e-006 
